# xmcd
#
# Track frame offsets:
#	150
#	15602
#	30962
#	43000
#	57792
#	81677
#	94032
#	106425
#	121322
#	143247
#	157047
#	173735
#
# Disc length: 2530
#
# Revision: 2
# Processed by: cddbd v1.5.1PL0 Copyright (c) Steve Scherf et al.
# Submitted via: audiograbber 1.82.01
# Normalized: r1:DSETVAR1
#
DISCID=9809e00c
DTITLE=Various Artist - SUPER-HITS der deutschen Country-Musik
DYEAR=1900
DGENRE=Country
TTITLE0=Jonny Hill - Ich hab dich tief im Herzen
TTITLE1=Gunter Gabriel - Truck Stop, Tom Astor und ich
TTITLE2=Hanna and Daana - Leb´ein bisschen mehr
TTITLE3=Greyhounds - Marlboro Man
TTITLE4=Larry Schuba and Western Union - wieder zuhaus
TTITLE5=Joe Hodkins Boss Band - Vergessen, Vorbei und Vorüber
TTITLE6=Mike Herman - So wie Robin Hood
TTITLE7=Dagmar-The Lady of Country - Ich lieb dich noch in hundert Jahren
TTITLE8=Gunter Gabriel - Dieselknecht
TTITLE9=Linda Feller - Hitze der Nacht
TTITLE10=Frank Baum and Country Green - Wo bist du
TTITLE11=Queens of Heart - Freiheit Pur
EXTD=
EXTT0=
EXTT1=
EXTT2=
EXTT3=
EXTT4=
EXTT5=
EXTT6=
EXTT7=
EXTT8=
EXTT9=
EXTT10=
EXTT11=
PLAYORDER=
